<?xml version="1.0" encoding="utf-8"?>
<!-- Generator: Adobe Illustrator 16.0.0, SVG Export Plug-In . SVG Version: 6.00 Build 0)  -->
<!DOCTYPE svg PUBLIC "-//W3C//DTD SVG 1.1//EN" "http://www.w3.org/Graphics/SVG/1.1/DTD/svg11.dtd">
<svg version="1.1" id="Layer_1" xmlns="http://www.w3.org/2000/svg" xmlns:xlink="http://www.w3.org/1999/xlink" x="0px" y="0px"
	 width="128px" height="128px" viewBox="0 0 128 128" enable-background="new 0 0 128 128" xml:space="preserve">
<path d="M61,0v8.063c-15.027,0.672-24.334,6.371-29.063,13.281C26.9,28.705,26.999,36.65,26.999,39
	c0,10.636,5.906,18.542,13.313,22.844C46.635,65.518,53.878,67.366,61,69v38.938c-9.793-0.438-16.046-3.033-19.875-6.438
	C36.919,97.762,35,92.75,35,86H23c0,9.25,3.081,18.238,10.125,24.5c6.512,5.788,15.864,8.986,27.875,9.438v8.063h8v-8.125
	c14.549-0.758,23.846-4.875,29.344-10.969C104.45,102.141,105,93.945,105,89.001c0-10.636-5.906-18.542-13.312-22.844
	c-6.916-4.017-14.938-5.87-22.688-7.625V20.188c7.592,0.612,12.271,2.642,15.063,5.219C87.422,28.509,89,33.001,89,40.001h12
	c0-9-2.423-17.508-8.812-23.406c-5.5-5.076-13.252-7.782-23.188-8.438V0.001L61,0L61,0z M61,20.094v36.563
	c-5.798-1.45-11.021-3.058-14.688-5.188c-4.968-2.886-7.313-5.604-7.313-12.469c0-2.35,0.1-6.911,2.813-10.875
	C44.324,24.455,49.053,20.643,61,20.094z M69,70.875c6.58,1.578,12.609,3.288,16.688,5.656c4.969,2.886,7.313,5.604,7.313,12.469
	c0,4.057-0.45,8.359-3.594,11.844c-2.781,3.082-8.397,6.328-20.406,7.031L69,70.875L69,70.875z"/>
</svg>
