<?xml version="1.0" encoding="utf-8"?>
<!-- Generator: Adobe Illustrator 16.0.0, SVG Export Plug-In . SVG Version: 6.00 Build 0)  -->
<!DOCTYPE svg PUBLIC "-//W3C//DTD SVG 1.1//EN" "http://www.w3.org/Graphics/SVG/1.1/DTD/svg11.dtd">
<svg version="1.1" id="Layer_1" xmlns="http://www.w3.org/2000/svg" xmlns:xlink="http://www.w3.org/1999/xlink" x="0px" y="0px"
	 width="100px" height="100px" viewBox="0 0 100 100" enable-background="new 0 0 100 100" xml:space="preserve">
<path d="M89,76.747c-6.119,5.196-14.027,8.349-22.666,8.349c-13.59,0-25.392-7.771-31.22-19.096h44.243l2.144-10H31.763
	c-0.338-1.951-0.524-3.954-0.524-6c0-1.698,0.128-3.366,0.362-5h52.258L86,35.004V35H34.613
	c5.635-11.868,17.733-20.095,31.721-20.095c8.443,0,16.2,2.999,22.262,7.985l2.344-10.936C83.848,7.352,75.4,4.666,66.334,4.666
	C46.593,4.666,29.769,17.354,23.562,35H8.001L5.812,45h15.469C21.101,46.643,21,48.31,21,50c0,2.035,0.148,4.035,0.409,6H8.215
	L6.072,66h17.852c6.482,17.124,23.043,29.335,42.41,29.335c8.254,0,15.995-2.224,22.666-6.097V76.747z"/>
</svg>
