<?xml version="1.0" encoding="utf-8"?>
<!-- Generator: Adobe Illustrator 16.0.0, SVG Export Plug-In . SVG Version: 6.00 Build 0)  -->
<!DOCTYPE svg PUBLIC "-//W3C//DTD SVG 1.1//EN" "http://www.w3.org/Graphics/SVG/1.1/DTD/svg11.dtd">
<svg version="1.1" id="Layer_1" xmlns="http://www.w3.org/2000/svg" xmlns:xlink="http://www.w3.org/1999/xlink" x="0px" y="0px"
	 width="128px" height="128px" viewBox="0 0 128 128" enable-background="new 0 0 128 128" xml:space="preserve">
<path fill="#231F20" d="M75.145,0c14.346,0,22.252,2.582,27.034,4.981c7.355,3.872,15.08,11.621,15.08,27.11
	c0,14.203-6.804,23.242-12.138,27.853C93.72,69.9,78.822,70.823,69.078,70.823h-9.564v11.069h55.173v7.007H59.514v28.957
	l19.309,3.319V128H24.756v-6.824l17.654-3.319V88.899H24.756v-7.007h17.654V70.823H24.756v-7.007h17.654V10.144L24.756,6.827V0
	H75.145z M68.157,63.816c5.701,0,17.654-0.554,24.642-8.116c2.024-2.213,6.07-7.746,6.07-18.997c0-12.355-4.782-19.363-9.748-23.239
	c-5.516-4.425-13.792-6.455-23.354-6.455h-6.253v56.807H68.157z"/>
</svg>
